<svg xmlns="http://www.w3.org/2000/svg" data-name="Layer 1" viewBox="0 0 100 125" x="0px" y="0px"><title>Artboard 16</title><path d="M67.22,39.1l3.44-3.44a8,8,0,0,0,0-11.31l-.14-.14a21.05,21.05,0,0,0-15-6.21A16.53,16.53,0,0,0,39.1,32.78l-3.44-3.44a8,8,0,0,0-11.31,0l-.14.14a21.05,21.05,0,0,0-6.21,15A16.53,16.53,0,0,0,32.78,60.9l-3.44,3.44a8,8,0,0,0,0,11.31l.14.14a21.05,21.05,0,0,0,15,6.21A16.53,16.53,0,0,0,60.9,67.22l3.44,3.44a8,8,0,0,0,11.31,0l.14-.14a21.05,21.05,0,0,0,6.21-15A16.53,16.53,0,0,0,67.22,39.1ZM49.5,28.5a8.54,8.54,0,0,1,6-2.5,13.19,13.19,0,0,1,9.33,3.86L65,30,51,44l-.14-.14A13.19,13.19,0,0,1,47,34.54,8.54,8.54,0,0,1,49.5,28.5Zm-21,22a8.54,8.54,0,0,1-2.5-6h0a13.19,13.19,0,0,1,3.86-9.33L30,35,44,49l-.14.14A13.19,13.19,0,0,1,34.54,53,8.54,8.54,0,0,1,28.5,50.5Zm22,21a8.54,8.54,0,0,1-6,2.5,13.19,13.19,0,0,1-9.33-3.86L35,70,49,56l.14.14A13.19,13.19,0,0,1,53,65.46,8.54,8.54,0,0,1,50.5,71.5Zm19.64-6.64L70,65,56,51l.14-.14A13.19,13.19,0,0,1,65.46,47,8.54,8.54,0,0,1,74,55.54,13.19,13.19,0,0,1,70.14,64.86Z"/><text x="0" y="115" fill="#000000" font-size="5px" font-weight="bold" font-family="'Helvetica Neue', Helvetica, Arial-Unicode, Arial, Sans-serif">Created by Gregor Cresnar</text><text x="0" y="120" fill="#000000" font-size="5px" font-weight="bold" font-family="'Helvetica Neue', Helvetica, Arial-Unicode, Arial, Sans-serif">from the Noun Project</text></svg>